<mxfile host="app.diagrams.net" modified="2023-03-31T09:55:14.731Z" agent="Mozilla/5.0 (Windows NT 10.0; Win64; x64) AppleWebKit/537.36 (KHTML, like Gecko) Chrome/111.0.0.0 Safari/537.36" etag="8HcPuKrq6RBrZqlOX5UB" version="21.1.2" type="device">
  <diagram name="Page-1" id="T5G1l30NneXcJgBM22MS">
    <mxGraphModel dx="1434" dy="707" grid="1" gridSize="10" guides="1" tooltips="1" connect="1" arrows="1" fold="1" page="1" pageScale="1" pageWidth="827" pageHeight="1169" math="0" shadow="0">
      <root>
        <mxCell id="0" />
        <mxCell id="1" parent="0" />
        <mxCell id="wxmmxz73WrTOmGL8rOM--1" value="Controleur" style="rounded=0;whiteSpace=wrap;html=1;" vertex="1" parent="1">
          <mxGeometry x="650" y="240" width="120" height="60" as="geometry" />
        </mxCell>
        <mxCell id="wxmmxz73WrTOmGL8rOM--3" value="Service Meteo + Alerte sÃ©cheresse" style="rounded=0;whiteSpace=wrap;html=1;" vertex="1" parent="1">
          <mxGeometry x="60" y="240" width="120" height="60" as="geometry" />
        </mxCell>
        <mxCell id="wxmmxz73WrTOmGL8rOM--4" value="" style="shape=flexArrow;endArrow=classic;startArrow=classic;html=1;rounded=0;entryX=0;entryY=0.5;entryDx=0;entryDy=0;exitX=1;exitY=0.5;exitDx=0;exitDy=0;exitPerimeter=0;" edge="1" parent="1" source="wxmmxz73WrTOmGL8rOM--6" target="wxmmxz73WrTOmGL8rOM--1">
          <mxGeometry width="100" height="100" relative="1" as="geometry">
            <mxPoint x="470" y="270" as="sourcePoint" />
            <mxPoint x="610" y="230" as="targetPoint" />
          </mxGeometry>
        </mxCell>
        <mxCell id="wxmmxz73WrTOmGL8rOM--5" value="" style="shape=flexArrow;endArrow=classic;startArrow=classic;html=1;rounded=0;entryX=0;entryY=0.5;entryDx=0;entryDy=0;exitX=1;exitY=0.5;exitDx=0;exitDy=0;dashed=1;dashPattern=1 4;entryPerimeter=0;" edge="1" parent="1" source="wxmmxz73WrTOmGL8rOM--3" target="wxmmxz73WrTOmGL8rOM--6">
          <mxGeometry width="100" height="100" relative="1" as="geometry">
            <mxPoint x="170" y="269.5" as="sourcePoint" />
            <mxPoint x="354" y="270" as="targetPoint" />
          </mxGeometry>
        </mxCell>
        <mxCell id="wxmmxz73WrTOmGL8rOM--6" value="MQTT Brocker" style="shape=cylinder3;whiteSpace=wrap;html=1;boundedLbl=1;backgroundOutline=1;size=15;" vertex="1" parent="1">
          <mxGeometry x="350" y="215" width="123.5" height="110" as="geometry" />
        </mxCell>
        <mxCell id="wxmmxz73WrTOmGL8rOM--8" value="Capteurs|Actionneurs" style="rounded=0;whiteSpace=wrap;html=1;" vertex="1" parent="1">
          <mxGeometry x="351.75" y="30" width="120" height="60" as="geometry" />
        </mxCell>
        <mxCell id="wxmmxz73WrTOmGL8rOM--9" value="" style="shape=flexArrow;endArrow=classic;startArrow=classic;html=1;rounded=0;entryX=0.5;entryY=0;entryDx=0;entryDy=0;exitX=0.5;exitY=1;exitDx=0;exitDy=0;entryPerimeter=0;" edge="1" parent="1" source="wxmmxz73WrTOmGL8rOM--8" target="wxmmxz73WrTOmGL8rOM--6">
          <mxGeometry width="100" height="100" relative="1" as="geometry">
            <mxPoint x="326" y="160" as="sourcePoint" />
            <mxPoint x="502" y="160" as="targetPoint" />
          </mxGeometry>
        </mxCell>
        <mxCell id="wxmmxz73WrTOmGL8rOM--10" value="pub-sub" style="text;html=1;strokeColor=none;fillColor=none;align=center;verticalAlign=middle;whiteSpace=wrap;rounded=0;" vertex="1" parent="1">
          <mxGeometry x="300" y="90" width="60" height="30" as="geometry" />
        </mxCell>
        <mxCell id="wxmmxz73WrTOmGL8rOM--11" value="sub-pub" style="text;html=1;strokeColor=none;fillColor=none;align=center;verticalAlign=middle;whiteSpace=wrap;rounded=0;" vertex="1" parent="1">
          <mxGeometry x="580" y="230" width="60" height="30" as="geometry" />
        </mxCell>
        <mxCell id="wxmmxz73WrTOmGL8rOM--13" value="DASHBOARD" style="shape=process;whiteSpace=wrap;html=1;backgroundOutline=1;" vertex="1" parent="1">
          <mxGeometry x="290" y="430" width="280" height="80" as="geometry" />
        </mxCell>
        <mxCell id="wxmmxz73WrTOmGL8rOM--19" value="Config" style="shape=process;whiteSpace=wrap;html=1;backgroundOutline=1;" vertex="1" parent="1">
          <mxGeometry x="290" y="510" width="280" height="140" as="geometry" />
        </mxCell>
        <mxCell id="wxmmxz73WrTOmGL8rOM--20" value="" style="endArrow=classic;startArrow=classic;html=1;rounded=0;exitX=0;exitY=0.5;exitDx=0;exitDy=0;entryX=0.5;entryY=1;entryDx=0;entryDy=0;" edge="1" parent="1" source="wxmmxz73WrTOmGL8rOM--19" target="wxmmxz73WrTOmGL8rOM--22">
          <mxGeometry width="50" height="50" relative="1" as="geometry">
            <mxPoint x="390" y="390" as="sourcePoint" />
            <mxPoint x="170" y="420" as="targetPoint" />
            <Array as="points">
              <mxPoint x="125" y="580" />
            </Array>
          </mxGeometry>
        </mxCell>
        <mxCell id="wxmmxz73WrTOmGL8rOM--22" value="REST" style="ellipse;whiteSpace=wrap;html=1;aspect=fixed;" vertex="1" parent="1">
          <mxGeometry x="100" y="300" width="50" height="50" as="geometry" />
        </mxCell>
        <mxCell id="wxmmxz73WrTOmGL8rOM--23" value="REST" style="ellipse;whiteSpace=wrap;html=1;aspect=fixed;" vertex="1" parent="1">
          <mxGeometry x="685" y="300" width="50" height="50" as="geometry" />
        </mxCell>
        <mxCell id="wxmmxz73WrTOmGL8rOM--24" value="" style="endArrow=classic;startArrow=classic;html=1;rounded=0;exitX=1;exitY=0.5;exitDx=0;exitDy=0;entryX=0.5;entryY=1;entryDx=0;entryDy=0;" edge="1" parent="1" source="wxmmxz73WrTOmGL8rOM--19" target="wxmmxz73WrTOmGL8rOM--23">
          <mxGeometry width="50" height="50" relative="1" as="geometry">
            <mxPoint x="875" y="585" as="sourcePoint" />
            <mxPoint x="710" y="355" as="targetPoint" />
            <Array as="points">
              <mxPoint x="710" y="580" />
            </Array>
          </mxGeometry>
        </mxCell>
        <mxCell id="wxmmxz73WrTOmGL8rOM--25" value="Config" style="text;html=1;strokeColor=none;fillColor=none;align=center;verticalAlign=middle;whiteSpace=wrap;rounded=0;" vertex="1" parent="1">
          <mxGeometry x="80" y="200" width="60" height="30" as="geometry" />
        </mxCell>
        <mxCell id="wxmmxz73WrTOmGL8rOM--26" value="Config" style="text;html=1;strokeColor=none;fillColor=none;align=center;verticalAlign=middle;whiteSpace=wrap;rounded=0;" vertex="1" parent="1">
          <mxGeometry x="735" y="200" width="60" height="30" as="geometry" />
        </mxCell>
        <mxCell id="wxmmxz73WrTOmGL8rOM--27" value="" style="endArrow=classic;html=1;rounded=0;exitX=0.5;exitY=1;exitDx=0;exitDy=0;exitPerimeter=0;" edge="1" parent="1" source="wxmmxz73WrTOmGL8rOM--6">
          <mxGeometry width="50" height="50" relative="1" as="geometry">
            <mxPoint x="390" y="290" as="sourcePoint" />
            <mxPoint x="412" y="430" as="targetPoint" />
          </mxGeometry>
        </mxCell>
      </root>
    </mxGraphModel>
  </diagram>
</mxfile>
